<svg xmlns="http://www.w3.org/2000/svg" width="82" height="51" viewBox="0 0 82 51">
    <g fill="none" fill-rule="evenodd" transform="translate(1 1)">
        <rect width="80.291" height="49.02" fill="#E0E0E0" fill-opacity="0" stroke="#FFF" stroke-width=".845" rx="3.381"/>
        <path fill="#FFF" d="M3.38 0h73.53a3.38 3.38 0 0 1 3.38 3.38V19.44H0V3.38A3.38 3.38 0 0 1 3.38 0z"/>
        <text fill="#000" font-family="IBMPlexSans, IBM Plex Sans" font-size="10.142">
            <tspan x="6.761" y="13.381">Design &amp; Code</tspan>
        </text>
        <path fill="#FFF" d="M42.818 36.858h-1.961l-1.507-2.551h-.867v2.551h-1.825v-7.764h3.194c.765 0 1.404.255 1.94.776a2.52 2.52 0 0 1 .798 1.886c0 .943-.593 1.808-1.471 2.251l1.7 2.851zm-2.966-6.1h-1.369v1.996h1.37c.502 0 .912-.432.912-.998 0-.566-.41-.998-.913-.998zm7.499 1.076v-.522h1.711v5.546h-1.711v-.52c-.399.454-.97.675-1.7.675-.753 0-1.391-.277-1.928-.843-.536-.565-.798-1.264-.798-2.085s.262-1.509.798-2.074c.536-.566 1.175-.854 1.928-.854.73 0 1.3.222 1.7.676v.001zm-2.339 3.238c.25.244.582.366.981.366.4 0 .73-.122.981-.366.251-.243.377-.576.377-.987 0-.41-.126-.743-.377-.987-.25-.244-.582-.366-.98-.366-.4 0-.73.122-.982.366-.25.244-.376.577-.376.987 0 .41.125.744.376.987zm9.324-3.239v-2.74h1.71v7.765h-1.71v-.52c-.4.454-.97.675-1.7.675-.753 0-1.391-.277-1.928-.843-.536-.565-.798-1.264-.798-2.085s.262-1.509.798-2.074c.536-.566 1.175-.854 1.928-.854.73 0 1.3.222 1.7.676zm-2.339 3.24c.25.243.582.365.981.365.4 0 .73-.122.981-.366.251-.243.377-.576.377-.987 0-.41-.126-.743-.377-.987-.25-.244-.582-.366-.98-.366-.4 0-.73.122-.982.366-.25.244-.376.577-.376.987 0 .41.125.744.376.987zm6.757-4.537a1.048 1.048 0 0 1-1.449 0 .979.979 0 0 1 0-1.409c.41-.4 1.05-.4 1.45 0a.96.96 0 0 1 0 1.409zm.137 6.322h-1.712v-5.546h1.712v5.546zm4.475-5.546v1.597H62.19v1.964c0 .443.343.52 1.175.477v1.508c-1.084.111-1.837.011-2.259-.3-.422-.321-.627-.875-.627-1.685v-1.964h-.913v-1.597h.913v-1.054l1.71-.499v1.553h1.176zm3.483 3.394l1.072-3.394h1.825l-1.95 5.38c-.64 1.741-1.643 2.462-3.252 2.385v-1.553c.787 0 1.164-.244 1.426-.921l-2.27-5.29h1.883l1.266 3.393zM9.423 24.51h12.194c.536 0 .971.435.971.971v.175a.972.972 0 0 1-.971.971H9.423a.972.972 0 0 1-.971-.971v-.175c0-.536.435-.971.971-.971zm0 3.246h16.5c.536 0 .971.435.971.972v.174a.972.972 0 0 1-.971.972h-16.5a.972.972 0 0 1-.971-.972v-.174c0-.537.435-.972.971-.972zm0 3.247h16.5c.536 0 .971.435.971.971v.175a.972.972 0 0 1-.971.971h-16.5a.972.972 0 0 1-.971-.971v-.175c0-.536.435-.971.971-.971zm0 3.247h10.759c.536 0 .971.435.971.971v.175a.972.972 0 0 1-.971.971H9.423a.972.972 0 0 1-.971-.971v-.175c0-.536.435-.971.971-.971zm0 3.247h12.912c.536 0 .971.434.971.971v.175a.972.972 0 0 1-.971.971H9.423a.972.972 0 0 1-.971-.971v-.175c0-.537.435-.971.971-.971zm0 3.246h15.064c.537 0 .972.435.972.972v.174a.972.972 0 0 1-.972.972H9.423a.972.972 0 0 1-.971-.972v-.174c0-.537.435-.972.971-.972z"/>
    </g>
</svg>
